<svg width="684" height="684" fill="none" xmlns="http://www.w3.org/2000/svg"><path fill="#3C85FF" d="M61 61h284v284H61z"/><path fill="#7FAFFF" d="M365 61h284v284H365z"/><path fill="#D4E4FF" d="M365 365h284v284H365z"/><path fill="#7FAFFF" d="M61 365h284v284H61z"/><path d="M167.943 26.546v11.02c0 1.994-1.398 3.434-3.546 3.434-2.139 0-3.545-1.44-3.545-3.435v-11.02h-3.69v11.336c0 3.818 2.88 6.366 7.235 6.366 4.338 0 7.236-2.548 7.236-6.366V26.546h-3.69ZM174.601 44h3.631v-7.406c0-1.611 1.176-2.719 2.778-2.719.503 0 1.193.085 1.534.196v-3.222a5.439 5.439 0 0 0-1.142-.127c-1.466 0-2.667.852-3.145 2.471h-.136V30.91h-3.52V44Zm15.109 5.182c3.741 0 6.4-1.705 6.4-5.054V30.909h-3.605v2.199h-.136c-.486-1.065-1.551-2.37-3.742-2.37-2.872 0-5.301 2.234-5.301 6.691 0 4.355 2.361 6.383 5.31 6.383 2.088 0 3.256-1.048 3.733-2.13h.153v2.395c0 1.798-1.15 2.497-2.727 2.497-1.602 0-2.412-.699-2.71-1.492l-3.358.452c.435 2.063 2.454 3.648 5.983 3.648Zm.077-8.097c-1.782 0-2.753-1.415-2.753-3.673 0-2.224.954-3.784 2.753-3.784 1.764 0 2.752 1.491 2.752 3.784 0 2.31-1.005 3.673-2.752 3.673Zm15.179 3.17c3.238 0 5.42-1.576 5.931-4.005l-3.358-.222c-.366.998-1.304 1.517-2.514 1.517-1.815 0-2.966-1.201-2.966-3.153v-.009h8.915v-.997c0-4.449-2.693-6.647-6.153-6.647-3.853 0-6.35 2.735-6.35 6.775 0 4.15 2.463 6.742 6.495 6.742Zm-2.907-8.122c.077-1.491 1.211-2.684 2.821-2.684 1.577 0 2.668 1.125 2.676 2.684h-5.497Zm14.915.299c.009-1.688 1.014-2.676 2.48-2.676 1.458 0 2.335.954 2.327 2.556V44h3.631v-8.335c0-3.051-1.79-4.926-4.517-4.926-1.944 0-3.35.954-3.938 2.48h-.153v-2.31h-3.461V44h3.631v-7.568Zm18.262-5.523h-2.463v-3.136h-3.631v3.136h-1.789v2.727h1.789v6.819c-.017 2.565 1.731 3.835 4.364 3.724a7.066 7.066 0 0 0 1.969-.34l-.571-2.703c-.179.034-.563.12-.904.12-.724 0-1.227-.273-1.227-1.279v-6.34h2.463v-2.728Zm8.19 13.347c3.239 0 5.421-1.577 5.932-4.006L246 40.028c-.366.998-1.304 1.517-2.514 1.517-1.815 0-2.966-1.201-2.966-3.153v-.009h8.915v-.997c0-4.449-2.693-6.647-6.153-6.647-3.853 0-6.35 2.735-6.35 6.775 0 4.15 2.463 6.742 6.494 6.742Zm-2.906-8.123c.077-1.491 1.21-2.684 2.821-2.684 1.577 0 2.668 1.125 2.676 2.684h-5.497ZM451.128 26.546h-3.673v10.977h-.154l-7.534-10.978h-3.238V44h3.69V33.014h.128L447.941 44h3.187V26.546Zm6.714 17.701c1.935 0 3.187-.844 3.827-2.062h.102V44h3.443v-8.83c0-3.119-2.642-4.431-5.557-4.431-3.136 0-5.199 1.5-5.701 3.886l3.358.273c.247-.87 1.022-1.509 2.326-1.509 1.236 0 1.943.622 1.943 1.696v.051c0 .844-.894.955-3.17 1.176-2.591.24-4.918 1.108-4.918 4.032 0 2.59 1.85 3.903 4.347 3.903Zm-.486-14.949c0-.792.392-1.295.98-1.295.452 0 .793.247 1.168.528.477.35 1.023.759 1.977.75 1.543-.008 2.753-1.21 2.77-3.366l-1.986-.06c-.008.784-.358 1.313-1.014 1.321-.426 0-.784-.247-1.176-.528-.511-.35-1.082-.759-1.969-.75-1.551.008-2.77 1.21-2.77 3.375l2.02.025Zm1.526 12.444c-1.117 0-1.918-.52-1.918-1.518 0-1.022.844-1.525 2.122-1.704.793-.11 2.088-.298 2.523-.588v1.389c0 1.372-1.134 2.42-2.727 2.42Zm15.064 2.514c3.971 0 6.443-2.72 6.443-6.75 0-4.057-2.472-6.767-6.443-6.767-3.972 0-6.444 2.71-6.444 6.767 0 4.03 2.472 6.75 6.444 6.75Zm.017-2.813c-1.833 0-2.77-1.679-2.77-3.963s.937-3.971 2.77-3.971c1.798 0 2.736 1.687 2.736 3.971s-.938 3.963-2.736 3.963Zm22.736-3.017c.009 1.756-1.193 2.676-2.497 2.676-1.372 0-2.258-.963-2.267-2.505v-7.688h-3.631v8.335c.009 3.06 1.799 4.926 4.432 4.926 1.969 0 3.384-1.014 3.972-2.548h.136V44h3.486V30.91h-3.631v7.516ZM503.234 44h3.631v-7.406c0-1.611 1.176-2.719 2.778-2.719.503 0 1.193.085 1.534.196v-3.222a5.446 5.446 0 0 0-1.142-.127c-1.466 0-2.667.852-3.145 2.471h-.136V30.91h-3.52V44Zm15.109 5.182c3.741 0 6.4-1.705 6.4-5.054V30.909h-3.605v2.199h-.136c-.486-1.065-1.551-2.37-3.742-2.37-2.872 0-5.301 2.234-5.301 6.691 0 4.355 2.361 6.383 5.31 6.383 2.088 0 3.256-1.048 3.733-2.13h.153v2.395c0 1.798-1.15 2.497-2.727 2.497-1.602 0-2.412-.699-2.71-1.492l-3.358.452c.434 2.063 2.454 3.648 5.983 3.648Zm.076-8.097c-1.781 0-2.752-1.415-2.752-3.673 0-2.224.954-3.784 2.752-3.784 1.765 0 2.753 1.491 2.753 3.784 0 2.31-1.005 3.673-2.753 3.673Zm15.179 3.17c3.239 0 5.421-1.576 5.932-4.005l-3.358-.222c-.366.998-1.304 1.517-2.514 1.517-1.815 0-2.966-1.201-2.966-3.153v-.009h8.915v-.997c0-4.449-2.693-6.647-6.154-6.647-3.852 0-6.349 2.735-6.349 6.775 0 4.15 2.463 6.742 6.494 6.742Zm-2.906-8.122c.077-1.491 1.21-2.684 2.821-2.684 1.577 0 2.668 1.125 2.676 2.684h-5.497Zm14.915.299c.008-1.688 1.014-2.676 2.48-2.676 1.457 0 2.335.954 2.327 2.556V44h3.63v-8.335c0-3.051-1.789-4.926-4.517-4.926-1.943 0-3.349.954-3.937 2.48h-.154v-2.31h-3.46V44h3.631v-7.568Zm18.262-5.523h-2.463v-3.136h-3.631v3.136h-1.79v2.727h1.79v6.819c-.017 2.565 1.73 3.835 4.364 3.724a7.073 7.073 0 0 0 1.969-.34l-.571-2.703c-.179.034-.563.12-.904.12-.724 0-1.227-.273-1.227-1.279v-6.34h2.463v-2.728Zm8.19 13.347c3.239 0 5.421-1.577 5.932-4.006l-3.358-.222c-.366.998-1.304 1.517-2.514 1.517-1.815 0-2.966-1.201-2.966-3.153v-.009h8.915v-.997c0-4.449-2.693-6.647-6.154-6.647-3.852 0-6.349 2.735-6.349 6.775 0 4.15 2.463 6.742 6.494 6.742Zm-2.906-8.123c.077-1.491 1.21-2.684 2.821-2.684 1.577 0 2.668 1.125 2.676 2.684h-5.497ZM26.546 582.161v3.673h10.977v.154l-10.978 7.534v3.238H44v-3.69H33.014v-.128L44 585.348v-3.187H26.546Zm17.701-6.714c0-1.935-.844-3.187-2.062-3.827v-.102H44v-3.443h-8.83c-3.119 0-4.431 2.642-4.431 5.557 0 3.136 1.5 5.199 3.886 5.701l.273-3.358c-.87-.247-1.509-1.022-1.509-2.326 0-1.236.622-1.943 1.696-1.943h.051c.844 0 .955.894 1.176 3.17.24 2.591 1.108 4.918 4.032 4.918 2.59 0 3.903-1.85 3.903-4.347Zm-14.949.486c-.792 0-1.295-.392-1.295-.98 0-.452.247-.793.528-1.168.35-.477.759-1.023.75-1.977-.008-1.543-1.21-2.753-3.366-2.77l-.06 1.986c.784.008 1.313.358 1.321 1.014 0 .426-.247.784-.528 1.176-.35.511-.759 1.083-.75 1.969.008 1.551 1.21 2.77 3.375 2.77l.025-2.02Zm12.444-1.526c0 1.117-.52 1.918-1.518 1.918-1.022 0-1.525-.844-1.704-2.122-.11-.793-.298-2.088-.588-2.523h1.389c1.372 0 2.42 1.134 2.42 2.727Zm2.514-15.064c0-3.971-2.72-6.443-6.75-6.443-4.057 0-6.767 2.472-6.767 6.443 0 3.972 2.71 6.444 6.767 6.444 4.03 0 6.75-2.472 6.75-6.444Zm-2.813-.017c0 1.833-1.679 2.77-3.963 2.77s-3.971-.937-3.971-2.77c0-1.798 1.687-2.735 3.971-2.735s3.963.937 3.963 2.735Zm-14.898-18.1v3.691H44v-3.691H26.545ZM44 538.258v-3.631h-7.858c-1.449 0-2.412-.92-2.412-2.13 0-1.193.818-1.995 2.105-1.995H44v-3.519h-7.994c-1.355 0-2.276-.776-2.276-2.097 0-1.159.725-2.028 2.182-2.028H44v-3.623h-8.804c-2.838 0-4.457 1.688-4.457 4.125 0 1.918.98 3.41 2.48 3.946v.137c-1.517.417-2.48 1.756-2.48 3.554 0 1.764.937 3.102 2.48 3.648v.153h-2.31v3.46H44Zm4.91-21.89v-3.631h-7.007v-.111c1.091-.503 2.31-1.602 2.31-3.716 0-2.983-2.36-5.31-6.741-5.31-4.5 0-6.733 2.429-6.733 5.302 0 2.19 1.304 3.238 2.369 3.724v.162h-2.199v3.58h18Zm-11.455-3.554c-2.336 0-3.827-.989-3.827-2.753 0-1.799 1.56-2.753 3.827-2.753 2.284 0 3.869.971 3.869 2.753 0 1.747-1.534 2.753-3.87 2.753Zm6.8-17.549c0-3.971-2.718-6.443-6.75-6.443-4.056 0-6.766 2.472-6.766 6.443 0 3.972 2.71 6.443 6.767 6.443 4.03 0 6.75-2.471 6.75-6.443Zm-2.812-.017c0 1.833-1.679 2.77-3.963 2.77s-3.971-.937-3.971-2.77c0-1.798 1.687-2.736 3.971-2.736s3.963.938 3.963 2.736ZM44 486.461v-3.63h-7.406c-1.611 0-2.719-1.177-2.719-2.779 0-.503.085-1.193.196-1.534h-3.222a5.454 5.454 0 0 0-.127 1.142c0 1.466.852 2.668 2.471 3.145v.136H30.91v3.52H44Zm-13.09-17.439v2.463h-3.137v3.63h3.136v1.79h2.727v-1.79h6.819c2.565.017 3.835-1.73 3.724-4.363a7.066 7.066 0 0 0-.34-1.969l-2.703.571c.034.179.12.563.12.903 0 .725-.273 1.228-1.279 1.228h-6.34v-2.463h-2.728Zm13.337-6.098c0-1.935-.844-3.188-2.062-3.827v-.102H44v-3.444h-8.83c-3.119 0-4.431 2.643-4.431 5.557 0 3.137 1.5 5.199 3.886 5.702l.273-3.358c-.87-.247-1.509-1.023-1.509-2.327 0-1.235.622-1.943 1.696-1.943h.051c.844 0 .955.895 1.176 3.171.24 2.591 1.108 4.917 4.032 4.917 2.59 0 3.903-1.849 3.903-4.346Zm-2.505-1.04c0 1.116-.52 1.917-1.518 1.917-1.022 0-1.525-.843-1.704-2.122-.11-.792-.298-2.088-.588-2.522h1.389c1.372 0 2.42 1.133 2.42 2.727Zm-5.31-12.78c-1.688-.008-2.676-1.014-2.676-2.48 0-1.457.954-2.335 2.556-2.327H44v-3.63h-8.335c-3.051 0-4.926 1.789-4.926 4.517 0 1.943.954 3.349 2.48 3.937v.154h-2.31v3.46H44v-3.631h-7.568Zm-5.523-18.262v2.463h-3.136v3.631h3.136v1.789h2.727v-1.789h6.819c2.565.017 3.835-1.73 3.724-4.364a7.073 7.073 0 0 0-.34-1.969l-2.703.571c.034.179.12.563.12.904 0 .724-.273 1.227-1.279 1.227h-6.34v-2.463h-2.728Zm13.347-8.19c0-3.239-1.577-5.421-4.006-5.932l-.222 3.358c.998.366 1.517 1.304 1.517 2.514 0 1.815-1.201 2.966-3.153 2.966h-.009v-8.915h-.997c-4.449 0-6.647 2.693-6.647 6.154 0 3.852 2.735 6.349 6.775 6.349 4.15 0 6.742-2.463 6.742-6.494Zm-8.123 2.906c-1.491-.077-2.684-1.21-2.684-2.821 0-1.577 1.125-2.668 2.684-2.676v5.497ZM26.546 263.148v3.69H44v-3.69H26.546ZM44 260.18v-3.631h-7.858c-1.449 0-2.412-.92-2.412-2.13 0-1.194.818-1.995 2.105-1.995H44v-3.52h-7.994c-1.355 0-2.276-.775-2.276-2.096 0-1.159.725-2.029 2.182-2.029H44v-3.622h-8.804c-2.838 0-4.457 1.688-4.457 4.125 0 1.918.98 3.409 2.48 3.946v.137c-1.517.417-2.48 1.755-2.48 3.554 0 1.764.937 3.102 2.48 3.647v.154h-2.31v3.46H44Zm4.91-21.891v-3.63h-7.007v-.111c1.091-.503 2.31-1.602 2.31-3.716 0-2.983-2.36-5.31-6.741-5.31-4.5 0-6.733 2.429-6.733 5.302 0 2.19 1.304 3.238 2.369 3.724v.162h-2.199v3.579h18Zm-11.455-3.554c-2.336 0-3.827-.988-3.827-2.752 0-1.799 1.56-2.753 3.827-2.753 2.284 0 3.869.971 3.869 2.753 0 1.747-1.534 2.752-3.87 2.752Zm6.8-17.548c0-3.971-2.718-6.443-6.75-6.443-4.056 0-6.766 2.472-6.766 6.443 0 3.972 2.71 6.443 6.767 6.443 4.03 0 6.75-2.471 6.75-6.443Zm-2.812-.017c0 1.832-1.679 2.77-3.963 2.77s-3.971-.938-3.971-2.77c0-1.798 1.687-2.736 3.971-2.736s3.963.938 3.963 2.736ZM44 208.383v-3.631h-7.406c-1.611 0-2.719-1.176-2.719-2.778 0-.503.085-1.193.196-1.534h-3.222a5.454 5.454 0 0 0-.127 1.142c0 1.466.852 2.668 2.471 3.145v.136H30.91v3.52H44Zm-13.09-17.439v2.463h-3.137v3.63h3.136v1.79h2.727v-1.79h6.819c2.565.017 3.835-1.73 3.724-4.363a7.058 7.058 0 0 0-.34-1.969l-2.703.571c.034.179.12.562.12.903 0 .725-.273 1.228-1.279 1.228h-6.34v-2.463h-2.728Zm13.337-6.098c0-1.935-.844-3.188-2.062-3.827v-.102H44v-3.444h-8.83c-3.119 0-4.431 2.642-4.431 5.557 0 3.137 1.5 5.199 3.886 5.702l.273-3.358c-.87-.247-1.509-1.023-1.509-2.327 0-1.236.622-1.943 1.696-1.943h.051c.844 0 .955.895 1.176 3.171.24 2.59 1.108 4.917 4.032 4.917 2.59 0 3.903-1.849 3.903-4.346Zm-2.505-1.04c0 1.116-.52 1.917-1.518 1.917-1.022 0-1.525-.843-1.704-2.122-.11-.792-.298-2.088-.588-2.523h1.389c1.372 0 2.42 1.134 2.42 2.728Zm-5.31-12.78c-1.688-.009-2.676-1.014-2.676-2.48 0-1.458.954-2.335 2.556-2.327H44v-3.631h-8.335c-3.051 0-4.926 1.79-4.926 4.517 0 1.944.954 3.35 2.48 3.938v.153h-2.31v3.461H44v-3.631h-7.568Zm-5.523-18.262v2.463h-3.136v3.631h3.136v1.789h2.727v-1.789h6.819c2.565.017 3.835-1.731 3.724-4.364a7.066 7.066 0 0 0-.34-1.969l-2.703.571c.034.179.12.563.12.904 0 .724-.273 1.227-1.279 1.227h-6.34v-2.463h-2.728Zm13.347-8.19c0-3.239-1.577-5.421-4.006-5.932L40.028 142c.998.366 1.517 1.304 1.517 2.514 0 1.815-1.201 2.966-3.153 2.966h-.009v-8.915h-.997c-4.449 0-6.647 2.693-6.647 6.153 0 3.853 2.735 6.35 6.775 6.35 4.15 0 6.742-2.463 6.742-6.494Zm-8.123 2.906c-1.491-.077-2.684-1.21-2.684-2.821 0-1.577 1.125-2.668 2.684-2.676v5.497Z" fill="#3C85FF"/><path d="M148.076 194h5.536v-10.815h10.649v-4.564h-10.649v-6.239h11.8v-4.564h-17.336V194Zm22.302 0 1.943-5.97h9.448l1.943 5.97h5.932l-9.026-26.182h-7.133L164.446 194h5.932Zm3.35-10.291 3.221-9.908h.205l3.221 9.908h-6.647ZM192.514 194h20.045v-4.564h-13.103l13.078-18.332v-3.286h-20.046v4.564h13.091l-13.065 18.332V194Zm24.293 0H234.5v-4.564h-12.158v-6.251h11.199v-4.564h-11.199v-6.239h12.107v-4.564h-17.642V194Zm22.043 0h5.535v-9.281h4.04l4.96 9.281h6.111l-5.561-10.176c2.979-1.279 4.628-3.874 4.628-7.453 0-5.203-3.439-8.553-9.384-8.553H238.85V194Zm5.535-13.73v-7.926h3.733c3.196 0 4.743 1.419 4.743 4.027 0 2.595-1.547 3.899-4.717 3.899h-3.759ZM108.329 233h1.586v-5.114h2.863c.115 0 .224 0 .333-.006l2.761 5.12h1.841l-2.96-5.408c1.669-.569 2.449-1.93 2.449-3.669 0-2.314-1.381-4.014-4.449-4.014h-4.424V233Zm1.586-6.545v-5.14h2.787c2.122 0 2.94 1.036 2.94 2.608 0 1.573-.818 2.532-2.915 2.532h-2.812Zm13.735 6.75c1.994 0 3.451-.998 3.911-2.481l-1.457-.409c-.383 1.023-1.272 1.534-2.454 1.534-1.771 0-2.992-1.144-3.062-3.247h7.127v-.639c0-3.656-2.173-4.909-4.219-4.909-2.659 0-4.423 2.097-4.423 5.114s1.738 5.037 4.577 5.037Zm-3.062-5.907c.102-1.527 1.182-2.889 2.908-2.889 1.636 0 2.685 1.227 2.685 2.889h-5.593Zm12.311 5.932c1.713 0 2.608-.92 2.915-1.56h.076V233h1.509v-6.469c0-3.119-2.378-3.477-3.631-3.477-1.483 0-3.17.511-3.937 2.301l1.431.511c.333-.715 1.119-1.482 2.557-1.482 1.387 0 2.071.735 2.071 1.994v.051c0 .729-.741.665-2.531.895-1.822.236-3.81.639-3.81 2.889 0 1.918 1.483 3.017 3.35 3.017Zm.23-1.355c-1.202 0-2.071-.537-2.071-1.585 0-1.151 1.048-1.509 2.224-1.662.64-.077 2.353-.256 2.608-.563v1.381c0 1.227-.971 2.429-2.761 2.429Zm8.532-11.966h-1.509V233h1.509v-13.091ZM144.424 233h1.508v-9.818h-1.508V233Zm.767-11.455c.588 0 1.074-.46 1.074-1.022 0-.563-.486-1.023-1.074-1.023-.588 0-1.074.46-1.074 1.023 0 .562.486 1.022 1.074 1.022ZM148.414 233h7.696v-1.406h-5.6v-.103l5.421-7.107v-1.202h-7.338v1.406h5.395v.102l-5.574 7.159V233Zm13.855.205c1.994 0 3.451-.998 3.912-2.481l-1.458-.409c-.383 1.023-1.272 1.534-2.454 1.534-1.771 0-2.992-1.144-3.062-3.247h7.127v-.639c0-3.656-2.173-4.909-4.219-4.909-2.659 0-4.423 2.097-4.423 5.114s1.739 5.037 4.577 5.037Zm-3.062-5.907c.102-1.527 1.182-2.889 2.908-2.889 1.637 0 2.685 1.227 2.685 2.889h-5.593Zm17.373 5.932c1.714 0 2.608-.92 2.915-1.56h.077V233h1.508v-6.469c0-3.119-2.377-3.477-3.63-3.477-1.483 0-3.171.511-3.938 2.301l1.432.511c.332-.715 1.119-1.482 2.557-1.482 1.387 0 2.071.735 2.071 1.994v.051c0 .729-.742.665-2.531.895-1.822.236-3.81.639-3.81 2.889 0 1.918 1.483 3.017 3.349 3.017Zm.231-1.355c-1.202 0-2.071-.537-2.071-1.585 0-1.151 1.048-1.509 2.224-1.662.639-.077 2.352-.256 2.608-.563v1.381c0 1.227-.972 2.429-2.761 2.429Zm16.355-8.693h-2.096v-2.352h-1.509v2.352h-1.483v1.278h1.483v6.137c0 1.713 1.381 2.531 2.659 2.531.563 0 .921-.102 1.125-.179l-.307-1.355c-.127.025-.332.076-.664.076-.665 0-1.304-.204-1.304-1.482v-5.728h2.096v-1.278Zm5.159 10.048c1.713 0 2.608-.92 2.914-1.56h.077V233h1.509v-6.469c0-3.119-2.378-3.477-3.631-3.477-1.483 0-3.171.511-3.938 2.301l1.432.511c.333-.715 1.119-1.482 2.557-1.482 1.387 0 2.071.735 2.071 1.994v.051c0 .729-.741.665-2.531.895-1.822.236-3.81.639-3.81 2.889 0 1.918 1.483 3.017 3.35 3.017Zm.23-1.355c-1.202 0-2.071-.537-2.071-1.585 0-1.151 1.048-1.509 2.224-1.662.639-.077 2.352-.256 2.608-.563v1.381c0 1.227-.972 2.429-2.761 2.429Zm7.023 1.125h1.508v-6.213c0-1.33 1.049-2.301 2.481-2.301.402 0 .818.076.92.102v-1.534a14.28 14.28 0 0 0-.793-.026c-1.176 0-2.198.665-2.556 1.637h-.103v-1.483h-1.457V233Zm10.515.205c1.994 0 3.452-.998 3.912-2.481l-1.458-.409c-.383 1.023-1.272 1.534-2.454 1.534-1.771 0-2.992-1.144-3.062-3.247h7.127v-.639c0-3.656-2.173-4.909-4.219-4.909-2.659 0-4.423 2.097-4.423 5.114s1.739 5.037 4.577 5.037Zm-3.062-5.907c.102-1.527 1.183-2.889 2.908-2.889 1.637 0 2.685 1.227 2.685 2.889h-5.593Zm13.794-4.116h-2.199v-.997c0-.972.409-1.483 1.406-1.483.435 0 .691.102.844.153l.435-1.304c-.23-.102-.69-.256-1.432-.256-1.406 0-2.761.844-2.761 2.532v1.355h-1.586v1.278h1.586V233h1.508v-8.54h2.199v-1.278Zm4.722 10.048c1.713 0 2.608-.92 2.915-1.56h.077V233h1.508v-6.469c0-3.119-2.378-3.477-3.63-3.477-1.483 0-3.171.511-3.938 2.301l1.432.511c.332-.715 1.118-1.482 2.557-1.482 1.387 0 2.071.735 2.071 1.994v.051c0 .729-.742.665-2.532.895-1.821.236-3.809.639-3.809 2.889 0 1.918 1.483 3.017 3.349 3.017Zm.23-1.355c-1.201 0-2.071-.537-2.071-1.585 0-1.151 1.049-1.509 2.225-1.662.639-.077 2.352-.256 2.608-.563v1.381c0 1.227-.972 2.429-2.762 2.429Zm14.72 1.323c1.54 0 2.461-.722 2.882-1.547h.077V233h2.225v-6.571c0-2.595-2.116-3.375-3.989-3.375-2.065 0-3.65.92-4.161 2.71l2.16.307c.23-.671.882-1.246 2.014-1.246 1.074 0 1.662.549 1.662 1.514v.039c0 .665-.697.697-2.429.882-1.905.204-3.727.773-3.727 2.985 0 1.93 1.413 2.953 3.286 2.953Zm.6-1.7c-.965 0-1.655-.441-1.655-1.291 0-.889.773-1.26 1.809-1.407.607-.083 1.822-.236 2.122-.479v1.157c0 1.093-.882 2.02-2.276 2.02Zm11.18 5.388c2.653 0 4.609-1.214 4.609-3.726v-9.978h-2.282v1.623h-.128c-.352-.709-1.087-1.751-2.819-1.751-2.269 0-4.052 1.777-4.052 5.005 0 3.202 1.783 4.8 4.046 4.8 1.681 0 2.467-.901 2.825-1.623h.115v1.86c0 1.444-.959 2.039-2.275 2.039-1.394 0-2.008-.658-2.289-1.234l-2.084.505c.422 1.375 1.835 2.48 4.334 2.48Zm.019-5.842c-1.527 0-2.333-1.189-2.333-2.998 0-1.783.793-3.094 2.333-3.094 1.49 0 2.308 1.234 2.308 3.094 0 1.873-.831 2.998-2.308 2.998Zm11.244 2.148c2.876 0 4.704-2.027 4.704-5.063 0-3.042-1.828-5.075-4.704-5.075-2.876 0-4.705 2.033-4.705 5.075 0 3.036 1.829 5.063 4.705 5.063Zm.013-1.854c-1.592 0-2.372-1.419-2.372-3.215 0-1.796.78-3.235 2.372-3.235 1.566 0 2.346 1.439 2.346 3.235 0 1.796-.78 3.215-2.346 3.215Zm6.655 1.662h2.314v-5.772c0-1.246.94-2.129 2.212-2.129.39 0 .876.071 1.074.135v-2.129a5.6 5.6 0 0 0-.831-.064c-1.125 0-2.065.639-2.423 1.777h-.102v-1.636h-2.244V233Zm9.769.198c1.541 0 2.461-.722 2.883-1.547h.077V233h2.224v-6.571c0-2.595-2.116-3.375-3.989-3.375-2.064 0-3.649.92-4.161 2.71l2.161.307c.23-.671.882-1.246 2.013-1.246 1.074 0 1.662.549 1.662 1.514v.039c0 .665-.697.697-2.429.882-1.905.204-3.726.773-3.726 2.985 0 1.93 1.412 2.953 3.285 2.953Zm.601-1.7c-.965 0-1.656-.441-1.656-1.291 0-.889.774-1.26 1.809-1.407.608-.083 1.822-.236 2.123-.479v1.157c0 1.093-.883 2.02-2.276 2.02Zm8.201 1.604c.633 0 1.151-.517 1.151-1.15 0-.633-.518-1.151-1.151-1.151s-1.151.518-1.151 1.151.518 1.15 1.151 1.15ZM425.353 194l1.943-5.97h9.447l1.944 5.97h5.931l-9.025-26.182h-7.134L419.421 194h5.932Zm3.349-10.291 3.222-9.908h.204l3.222 9.908h-6.648Zm35.198-7.428h5.625c-.716-5.177-5.28-8.821-11.199-8.821-6.916 0-12.247 4.986-12.247 13.475 0 8.284 4.986 13.423 12.362 13.423 6.61 0 11.327-4.18 11.327-11.071v-3.298h-10.956v4.167h5.625c-.077 3.247-2.288 5.306-5.97 5.306-4.155 0-6.776-3.107-6.776-8.578 0-5.446 2.723-8.527 6.725-8.527 2.851 0 4.781 1.47 5.484 3.924ZM473.926 194h17.693v-4.564h-12.158v-6.251h11.199v-4.564h-11.199v-6.239h12.107v-4.564h-17.642V194Zm43.942-26.182h-5.51v16.466h-.23l-11.301-16.466h-4.858V194h5.535v-16.479h.192L513.087 194h4.781v-26.182ZM531.723 194c7.977 0 12.809-4.935 12.809-13.116 0-8.157-4.832-13.066-12.732-13.066h-9.358V194h9.281Zm-3.746-4.743v-16.696h3.529c4.909 0 7.504 2.506 7.504 8.323 0 5.842-2.595 8.373-7.517 8.373h-3.516ZM551.669 194l1.943-5.97h9.448l1.943 5.97h5.932l-9.026-26.182h-7.133L545.737 194h5.932Zm3.35-10.291 3.221-9.908h.205l3.221 9.908h-6.647ZM574.086 194h5.536v-9.281h4.039l4.961 9.281h6.11l-5.561-10.176c2.979-1.279 4.628-3.874 4.628-7.453 0-5.203-3.439-8.553-9.383-8.553h-10.33V194Zm5.536-13.73v-7.926h3.733c3.196 0 4.742 1.419 4.742 4.027 0 2.595-1.546 3.899-4.717 3.899h-3.758ZM405.578 233l1.08-3.228h4.922l1.087 3.228h2.531l-4.615-13.091h-2.928L403.047 233h2.531Zm1.719-5.133 1.771-5.273h.102l1.771 5.273h-3.644Zm13.494 9.019c2.653 0 4.609-1.214 4.609-3.726v-9.978h-2.282v1.623h-.128c-.352-.709-1.087-1.751-2.819-1.751-2.269 0-4.053 1.777-4.053 5.005 0 3.202 1.784 4.8 4.046 4.8 1.682 0 2.468-.901 2.826-1.623h.115v1.86c0 1.444-.959 2.039-2.276 2.039-1.393 0-2.007-.658-2.288-1.234l-2.084.505c.422 1.375 1.835 2.48 4.334 2.48Zm.019-5.842c-1.528 0-2.333-1.189-2.333-2.998 0-1.783.793-3.094 2.333-3.094 1.489 0 2.308 1.234 2.308 3.094 0 1.873-.831 2.998-2.308 2.998Zm11.308 2.148c2.288 0 3.86-1.119 4.269-2.826l-2.16-.242c-.313.831-1.08 1.265-2.077 1.265-1.496 0-2.487-.984-2.506-2.665h6.839v-.71c0-3.445-2.071-4.96-4.487-4.96-2.812 0-4.647 2.065-4.647 5.094 0 3.081 1.809 5.044 4.769 5.044Zm-2.468-6.028c.071-1.253.997-2.307 2.378-2.307 1.33 0 2.224.971 2.237 2.307h-4.615Zm11.105.083c0-1.419.856-2.237 2.077-2.237 1.196 0 1.911.786 1.911 2.097V233h2.314v-6.251c.007-2.353-1.336-3.695-3.362-3.695-1.47 0-2.48.703-2.927 1.796h-.115v-1.668h-2.212V233h2.314v-5.753Zm12.298 5.926c1.688 0 2.448-1.004 2.813-1.72h.14V233h2.276v-13.091h-2.321v4.896h-.095c-.352-.709-1.074-1.751-2.807-1.751-2.269 0-4.052 1.777-4.052 5.05 0 3.234 1.732 5.069 4.046 5.069Zm.646-1.899c-1.528 0-2.333-1.342-2.333-3.183 0-1.828.792-3.139 2.333-3.139 1.489 0 2.307 1.234 2.307 3.139 0 1.905-.831 3.183-2.307 3.183Zm11.395 1.918c2.288 0 3.861-1.119 4.27-2.826l-2.161-.242c-.313.831-1.08 1.265-2.077 1.265-1.496 0-2.486-.984-2.506-2.665h6.84v-.71c0-3.445-2.071-4.96-4.487-4.96-2.813 0-4.647 2.065-4.647 5.094 0 3.081 1.809 5.044 4.768 5.044Zm-2.467-6.028c.07-1.253.997-2.307 2.378-2.307 1.329 0 2.224.971 2.237 2.307h-4.615Zm20.232 1.822c0 1.841-1.406 2.684-2.531 2.684-1.253 0-2.148-.92-2.148-2.352v-6.136h-1.508v6.238c0 2.506 1.329 3.708 3.17 3.708 1.483 0 2.455-.793 2.915-1.79h.102V233h1.509v-9.818h-1.509v5.804Zm4.272 4.014h1.508v-6.136c0-1.439 1.049-2.455 2.225-2.455 1.144 0 1.943.748 1.943 1.867V233h1.534v-6.392c0-1.266.793-2.199 2.173-2.199 1.074 0 1.995.569 1.995 2.02V233h1.508v-6.571c0-2.308-1.24-3.375-2.991-3.375-1.407 0-2.436.646-2.941 1.662h-.102c-.486-1.048-1.342-1.662-2.634-1.662-1.278 0-2.224.614-2.633 1.662h-.128v-1.534h-1.457V233Zm22.215-5.906c0-1.713 1.093-2.685 2.583-2.685 1.419 0 2.275.895 2.275 2.455V233h1.509v-6.239c0-2.524-1.343-3.707-3.35-3.707-1.547 0-2.429.646-2.889 1.662h-.128v-4.807h-1.508V233h1.508v-5.906Zm13.115 6.111c2.659 0 4.449-2.02 4.449-5.063 0-3.068-1.79-5.088-4.449-5.088s-4.449 2.02-4.449 5.088c0 3.043 1.79 5.063 4.449 5.063Zm0-1.356c-2.02 0-2.94-1.738-2.94-3.707 0-1.969.92-3.733 2.94-3.733s2.94 1.764 2.94 3.733-.92 3.707-2.94 3.707Zm6.752 1.151h1.508v-6.213c0-1.33 1.049-2.301 2.48-2.301.403 0 .819.076.921.102v-1.534a14.28 14.28 0 0 0-.793-.026c-1.176 0-2.199.665-2.557 1.637h-.102v-1.483h-1.457V233Zm9.586.23c1.713 0 2.608-.92 2.915-1.56h.077V233h1.508v-6.469c0-3.119-2.378-3.477-3.63-3.477-1.483 0-3.171.511-3.938 2.301l1.432.511c.332-.715 1.118-1.482 2.557-1.482 1.387 0 2.071.735 2.071 1.994v.051c0 .729-.742.665-2.532.895-1.821.236-3.809.639-3.809 2.889 0 1.918 1.483 3.017 3.349 3.017Zm.23-1.355c-1.201 0-2.071-.537-2.071-1.585 0-1.151 1.049-1.509 2.225-1.662.639-.077 2.352-.256 2.608-.563v1.381c0 1.227-.972 2.429-2.762 2.429Zm.051-10.023h1.33l1.994-2.966h-1.764l-1.56 2.966ZM546.053 233h1.508v-6.213c0-1.33 1.048-2.301 2.48-2.301.403 0 .818.076.921.102v-1.534a14.28 14.28 0 0 0-.793-.026c-1.176 0-2.199.665-2.557 1.637h-.102v-1.483h-1.457V233Zm6.697 0h1.508v-9.818h-1.508V233Zm.767-11.455c.588 0 1.074-.46 1.074-1.022 0-.563-.486-1.023-1.074-1.023-.588 0-1.074.46-1.074 1.023 0 .562.486 1.022 1.074 1.022Zm7.493 11.66c2.659 0 4.449-2.02 4.449-5.063 0-3.068-1.79-5.088-4.449-5.088s-4.449 2.02-4.449 5.088c0 3.043 1.79 5.063 4.449 5.063Zm0-1.356c-2.02 0-2.94-1.738-2.94-3.707 0-1.969.92-3.733 2.94-3.733s2.94 1.764 2.94 3.733-.92 3.707-2.94 3.707Zm11.814 4.833h1.509v-5.191h.127c.333.537.972 1.714 2.864 1.714 2.455 0 4.168-1.969 4.168-5.089 0-3.093-1.713-5.062-4.194-5.062-1.917 0-2.505 1.176-2.838 1.687h-.179v-1.559h-1.457v13.5Zm1.483-8.591c0-2.199.972-3.682 2.812-3.682 1.918 0 2.864 1.611 2.864 3.682 0 2.097-.971 3.758-2.864 3.758-1.815 0-2.812-1.534-2.812-3.758Zm12.375 5.139c1.713 0 2.608-.92 2.915-1.56h.076V233h1.509v-6.469c0-3.119-2.378-3.477-3.631-3.477-1.483 0-3.17.511-3.937 2.301l1.432.511c.332-.715 1.118-1.482 2.556-1.482 1.388 0 2.071.735 2.071 1.994v.051c0 .729-.741.665-2.531.895-1.822.236-3.809.639-3.809 2.889 0 1.918 1.483 3.017 3.349 3.017Zm.23-1.355c-1.202 0-2.071-.537-2.071-1.585 0-1.151 1.048-1.509 2.225-1.662.639-.077 2.352-.256 2.607-.563v1.381c0 1.227-.971 2.429-2.761 2.429Zm7.023 1.125h1.509v-6.213c0-1.33 1.048-2.301 2.48-2.301.403 0 .818.076.92.102v-1.534a14.209 14.209 0 0 0-.792-.026c-1.176 0-2.199.665-2.557 1.637h-.102v-1.483h-1.458V233Zm9.587.23c1.713 0 2.608-.92 2.915-1.56h.076V233h1.509v-6.469c0-3.119-2.378-3.477-3.631-3.477-1.483 0-3.17.511-3.937 2.301l1.431.511c.333-.715 1.119-1.482 2.557-1.482 1.387 0 2.071.735 2.071 1.994v.051c0 .729-.741.665-2.531.895-1.822.236-3.81.639-3.81 2.889 0 1.918 1.483 3.017 3.35 3.017Zm.23-1.355c-1.202 0-2.071-.537-2.071-1.585 0-1.151 1.048-1.509 2.224-1.662.64-.077 2.353-.256 2.608-.563v1.381c0 1.227-.971 2.429-2.761 2.429ZM438.747 255h1.508v-6.213c0-1.33 1.049-2.301 2.481-2.301.402 0 .818.076.92.102v-1.534a14.28 14.28 0 0 0-.793-.026c-1.176 0-2.198.665-2.556 1.637h-.103v-1.483h-1.457V255Zm10.515.205c1.994 0 3.452-.998 3.912-2.481l-1.458-.409c-.383 1.023-1.272 1.534-2.454 1.534-1.771 0-2.992-1.144-3.062-3.247h7.127v-.639c0-3.656-2.173-4.909-4.219-4.909-2.659 0-4.423 2.097-4.423 5.114s1.739 5.037 4.577 5.037Zm-3.062-5.907c.102-1.527 1.183-2.889 2.908-2.889 1.637 0 2.685 1.227 2.685 2.889H446.2Zm12.311 5.932c1.713 0 2.608-.92 2.915-1.56h.077V255h1.508v-6.469c0-3.119-2.378-3.477-3.631-3.477-1.483 0-3.17.511-3.937 2.301l1.432.511c.332-.715 1.118-1.482 2.557-1.482 1.387 0 2.071.735 2.071 1.994v.051c0 .729-.742.665-2.532.895-1.821.236-3.809.639-3.809 2.889 0 1.918 1.483 3.017 3.349 3.017Zm.23-1.355c-1.201 0-2.071-.537-2.071-1.585 0-1.151 1.048-1.509 2.225-1.662.639-.077 2.352-.256 2.608-.563v1.381c0 1.227-.972 2.429-2.762 2.429Zm8.532-11.966h-1.509V255h1.509v-13.091ZM470.036 255h1.508v-9.818h-1.508V255Zm.767-11.455c.588 0 1.074-.46 1.074-1.022 0-.563-.486-1.023-1.074-1.023-.588 0-1.074.46-1.074 1.023 0 .562.486 1.022 1.074 1.022ZM474.026 255h7.696v-1.406h-5.599v-.103l5.42-7.107v-1.202h-7.338v1.406h5.395v.102l-5.574 7.159V255Zm12.909.23c1.713 0 2.608-.92 2.915-1.56h.076V255h1.509v-6.469c0-3.119-2.378-3.477-3.631-3.477-1.483 0-3.17.511-3.937 2.301l1.432.511c.332-.715 1.118-1.482 2.556-1.482 1.387 0 2.071.735 2.071 1.994v.051c0 .729-.741.665-2.531.895-1.822.236-3.81.639-3.81 2.889 0 1.918 1.483 3.017 3.35 3.017Zm.23-1.355c-1.202 0-2.071-.537-2.071-1.585 0-1.151 1.048-1.509 2.224-1.662.64-.077 2.353-.256 2.608-.563v1.381c0 1.227-.971 2.429-2.761 2.429Zm7.023 1.125h1.509v-6.213c0-1.33 1.048-2.301 2.48-2.301.403 0 .818.076.92.102v-1.534a14.242 14.242 0 0 0-.792-.026c-1.176 0-2.199.665-2.557 1.637h-.102v-1.483h-1.458V255Zm14.649.23c1.713 0 2.608-.92 2.915-1.56h.077V255h1.508v-6.469c0-3.119-2.378-3.477-3.63-3.477-1.483 0-3.171.511-3.938 2.301l1.432.511c.332-.715 1.119-1.482 2.557-1.482 1.387 0 2.071.735 2.071 1.994v.051c0 .729-.742.665-2.532.895-1.821.236-3.809.639-3.809 2.889 0 1.918 1.483 3.017 3.349 3.017Zm.23-1.355c-1.201 0-2.071-.537-2.071-1.585 0-1.151 1.049-1.509 2.225-1.662.639-.077 2.352-.256 2.608-.563v1.381c0 1.227-.972 2.429-2.762 2.429Zm16.356-8.693h-2.097v-2.352h-1.508v2.352h-1.483v1.278h1.483v6.137c0 1.713 1.381 2.531 2.659 2.531.563 0 .92-.102 1.125-.179l-.307-1.355c-.128.025-.332.076-.665.076-.664 0-1.304-.204-1.304-1.482v-5.728h2.097v-1.278Zm5.158 10.048c1.713 0 2.608-.92 2.915-1.56h.077V255h1.508v-6.469c0-3.119-2.377-3.477-3.63-3.477-1.483 0-3.171.511-3.938 2.301l1.432.511c.332-.715 1.119-1.482 2.557-1.482 1.387 0 2.071.735 2.071 1.994v.051c0 .729-.742.665-2.531.895-1.822.236-3.81.639-3.81 2.889 0 1.918 1.483 3.017 3.349 3.017Zm.231-1.355c-1.202 0-2.071-.537-2.071-1.585 0-1.151 1.048-1.509 2.224-1.662.639-.077 2.352-.256 2.608-.563v1.381c0 1.227-.972 2.429-2.761 2.429Zm7.023 1.125h1.508v-6.213c0-1.33 1.049-2.301 2.48-2.301.403 0 .819.076.921.102v-1.534a14.28 14.28 0 0 0-.793-.026c-1.176 0-2.199.665-2.557 1.637h-.102v-1.483h-1.457V255Zm10.515.205c1.994 0 3.451-.998 3.912-2.481l-1.458-.409c-.383 1.023-1.272 1.534-2.454 1.534-1.771 0-2.992-1.144-3.062-3.247h7.127v-.639c0-3.656-2.173-4.909-4.219-4.909-2.659 0-4.423 2.097-4.423 5.114s1.739 5.037 4.577 5.037Zm-3.062-5.907c.102-1.527 1.182-2.889 2.908-2.889 1.637 0 2.685 1.227 2.685 2.889h-5.593Zm13.794-4.116h-2.199v-.997c0-.972.409-1.483 1.406-1.483.435 0 .691.102.844.153l.435-1.304c-.23-.102-.691-.256-1.432-.256-1.406 0-2.761.844-2.761 2.532v1.355h-1.586v1.278h1.586V255h1.508v-8.54h2.199v-1.278Zm4.722 10.048c1.713 0 2.608-.92 2.915-1.56h.077V255h1.508v-6.469c0-3.119-2.378-3.477-3.631-3.477-1.483 0-3.17.511-3.937 2.301l1.432.511c.332-.715 1.118-1.482 2.557-1.482 1.387 0 2.071.735 2.071 1.994v.051c0 .729-.742.665-2.532.895-1.821.236-3.809.639-3.809 2.889 0 1.918 1.483 3.017 3.349 3.017Zm.23-1.355c-1.202 0-2.071-.537-2.071-1.585 0-1.151 1.048-1.509 2.225-1.662.639-.077 2.352-.256 2.608-.563v1.381c0 1.227-.972 2.429-2.762 2.429Zm8.123 1.227c.633 0 1.15-.517 1.15-1.15 0-.633-.517-1.151-1.15-1.151-.633 0-1.151.518-1.151 1.151s.518 1.15 1.151 1.15ZM130.639 496c7.977 0 12.81-4.935 12.81-13.116 0-8.157-4.833-13.066-12.733-13.066h-9.358V496h9.281Zm-3.746-4.743v-16.696h3.529c4.909 0 7.504 2.506 7.504 8.323 0 5.842-2.595 8.373-7.517 8.373h-3.516ZM147.549 496h17.693v-4.564h-12.157v-6.251h11.198v-4.564h-11.198v-6.239h12.106v-4.564h-17.642V496Zm22.043 0h16.76v-4.564h-11.225v-21.618h-5.535V496Zm20.426 0h17.693v-4.564h-12.158v-6.251h11.199v-4.564h-11.199v-6.239h12.107v-4.564h-17.642V496Zm39.404-17.719h5.625c-.716-5.177-5.28-8.821-11.199-8.821-6.917 0-12.248 4.986-12.248 13.475 0 8.284 4.986 13.423 12.363 13.423 6.609 0 11.326-4.18 11.326-11.071v-3.298h-10.956v4.167h5.625c-.076 3.247-2.288 5.306-5.97 5.306-4.155 0-6.775-3.107-6.775-8.578 0-5.446 2.723-8.527 6.724-8.527 2.851 0 4.781 1.47 5.485 3.924ZM243.152 496l1.943-5.97h9.447l1.943 5.97h5.932l-9.025-26.182h-7.134L237.22 496h5.932Zm3.349-10.291 3.222-9.908h.204l3.222 9.908h-6.648ZM265.569 496h5.535v-9.281h4.04l4.96 9.281h6.111l-5.561-10.176c2.978-1.279 4.628-3.874 4.628-7.453 0-5.203-3.439-8.553-9.384-8.553h-10.329V496Zm5.535-13.73v-7.926h3.733c3.196 0 4.743 1.419 4.743 4.027 0 2.595-1.547 3.899-4.717 3.899h-3.759ZM115.999 535c3.989 0 6.239-2.48 6.239-6.571 0-4.065-2.25-6.52-6.06-6.52h-4.219V535h4.04Zm-2.455-1.406v-10.279h2.532c3.068 0 4.628 1.944 4.628 5.114 0 3.196-1.56 5.165-4.807 5.165h-2.353Zm15.265 1.611c1.994 0 3.451-.998 3.912-2.481l-1.458-.409c-.383 1.023-1.272 1.534-2.454 1.534-1.771 0-2.992-1.144-3.062-3.247h7.127v-.639c0-3.656-2.173-4.909-4.219-4.909-2.659 0-4.423 2.097-4.423 5.114s1.739 5.037 4.577 5.037Zm-3.062-5.907c.102-1.527 1.182-2.889 2.908-2.889 1.637 0 2.685 1.227 2.685 2.889h-5.593Zm10.93-7.389h-1.508V535h1.508v-13.091Zm6.88 13.296c1.994 0 3.451-.998 3.912-2.481l-1.458-.409c-.383 1.023-1.272 1.534-2.454 1.534-1.771 0-2.992-1.144-3.062-3.247h7.127v-.639c0-3.656-2.173-4.909-4.219-4.909-2.659 0-4.423 2.097-4.423 5.114s1.739 5.037 4.577 5.037Zm-3.062-5.907c.102-1.527 1.182-2.889 2.908-2.889 1.637 0 2.685 1.227 2.685 2.889h-5.593Zm13.385 9.588c2.352 0 4.244-1.074 4.244-3.605v-10.099h-1.457v1.559h-.154c-.332-.511-.946-1.687-2.863-1.687-2.48 0-4.193 1.969-4.193 4.986 0 3.068 1.789 4.807 4.167 4.807 1.918 0 2.531-1.125 2.864-1.662h.128v1.994c0 1.636-1.151 2.378-2.736 2.378-1.783 0-2.41-.94-2.813-1.483l-1.201.844c.613 1.029 1.821 1.968 4.014 1.968Zm-.051-5.395c-1.892 0-2.864-1.431-2.864-3.477 0-1.994.946-3.605 2.864-3.605 1.841 0 2.812 1.483 2.812 3.605 0 2.174-.997 3.477-2.812 3.477Zm13.244-2.505c0 1.841-1.406 2.684-2.531 2.684-1.253 0-2.148-.92-2.148-2.352v-6.136h-1.508v6.238c0 2.506 1.329 3.708 3.17 3.708 1.483 0 2.455-.793 2.915-1.79h.102V535h1.509v-9.818h-1.509v5.804Zm8.388 4.219c1.994 0 3.452-.998 3.912-2.481l-1.457-.409c-.384 1.023-1.272 1.534-2.455 1.534-1.771 0-2.991-1.144-3.062-3.247h7.127v-.639c0-3.656-2.173-4.909-4.218-4.909-2.659 0-4.424 2.097-4.424 5.114s1.739 5.037 4.577 5.037Zm-3.062-5.907c.103-1.527 1.183-2.889 2.909-2.889 1.636 0 2.684 1.227 2.684 2.889h-5.593Zm17.374 5.932c1.713 0 2.608-.92 2.915-1.56h.076V535h1.509v-6.469c0-3.119-2.378-3.477-3.631-3.477-1.483 0-3.17.511-3.937 2.301l1.431.511c.333-.715 1.119-1.482 2.557-1.482 1.387 0 2.071.735 2.071 1.994v.051c0 .729-.741.665-2.531.895-1.822.236-3.81.639-3.81 2.889 0 1.918 1.483 3.017 3.35 3.017Zm.23-1.355c-1.202 0-2.071-.537-2.071-1.585 0-1.151 1.048-1.509 2.224-1.662.64-.077 2.353-.256 2.608-.563v1.381c0 1.227-.971 2.429-2.761 2.429Zm16.356-8.693h-2.097v-2.352h-1.509v2.352h-1.482v1.278h1.482v6.137c0 1.713 1.381 2.531 2.66 2.531.562 0 .92-.102 1.125-.179l-.307-1.355c-.128.025-.333.076-.665.076-.665 0-1.304-.204-1.304-1.482v-5.728h2.097v-1.278Zm5.158 10.048c1.713 0 2.608-.92 2.915-1.56h.076V535h1.509v-6.469c0-3.119-2.378-3.477-3.631-3.477-1.483 0-3.17.511-3.937 2.301l1.432.511c.332-.715 1.118-1.482 2.556-1.482 1.387 0 2.071.735 2.071 1.994v.051c0 .729-.741.665-2.531.895-1.822.236-3.809.639-3.809 2.889 0 1.918 1.482 3.017 3.349 3.017Zm.23-1.355c-1.202 0-2.071-.537-2.071-1.585 0-1.151 1.048-1.509 2.224-1.662.64-.077 2.353-.256 2.608-.563v1.381c0 1.227-.971 2.429-2.761 2.429ZM218.77 535h1.509v-6.213c0-1.33 1.048-2.301 2.48-2.301.403 0 .818.076.92.102v-1.534a14.209 14.209 0 0 0-.792-.026c-1.176 0-2.199.665-2.557 1.637h-.102v-1.483h-1.458V535Zm10.515.205c1.995 0 3.452-.998 3.912-2.481l-1.457-.409c-.384 1.023-1.272 1.534-2.455 1.534-1.77 0-2.991-1.144-3.062-3.247h7.128v-.639c0-3.656-2.174-4.909-4.219-4.909-2.659 0-4.423 2.097-4.423 5.114s1.738 5.037 4.576 5.037Zm-3.062-5.907c.103-1.527 1.183-2.889 2.909-2.889 1.636 0 2.684 1.227 2.684 2.889h-5.593Zm13.794-4.116h-2.198v-.997c0-.972.409-1.483 1.406-1.483.435 0 .69.102.844.153l.434-1.304c-.23-.102-.69-.256-1.432-.256-1.406 0-2.761.844-2.761 2.532v1.355h-1.585v1.278h1.585V535h1.509v-8.54h2.198v-1.278Zm4.723 10.048c1.713 0 2.608-.92 2.914-1.56h.077V535h1.509v-6.469c0-3.119-2.378-3.477-3.631-3.477-1.483 0-3.171.511-3.938 2.301l1.432.511c.333-.715 1.119-1.482 2.557-1.482 1.387 0 2.071.735 2.071 1.994v.051c0 .729-.741.665-2.531.895-1.822.236-3.81.639-3.81 2.889 0 1.918 1.483 3.017 3.35 3.017Zm.23-1.355c-1.202 0-2.071-.537-2.071-1.585 0-1.151 1.048-1.509 2.224-1.662.639-.077 2.352-.256 2.608-.563v1.381c0 1.227-.972 2.429-2.761 2.429Zm12.085 4.807h1.509v-5.191h.128c.332.537.971 1.714 2.863 1.714 2.455 0 4.168-1.969 4.168-5.089 0-3.093-1.713-5.062-4.193-5.062-1.918 0-2.506 1.176-2.838 1.687h-.179v-1.559h-1.458v13.5Zm1.483-8.591c0-2.199.972-3.682 2.813-3.682 1.918 0 2.864 1.611 2.864 3.682 0 2.097-.972 3.758-2.864 3.758-1.815 0-2.813-1.534-2.813-3.758Zm12.375 5.139c1.714 0 2.608-.92 2.915-1.56h.077V535h1.508v-6.469c0-3.119-2.377-3.477-3.63-3.477-1.483 0-3.171.511-3.938 2.301l1.432.511c.332-.715 1.119-1.482 2.557-1.482 1.387 0 2.071.735 2.071 1.994v.051c0 .729-.742.665-2.531.895-1.822.236-3.81.639-3.81 2.889 0 1.918 1.483 3.017 3.349 3.017Zm.231-1.355c-1.202 0-2.071-.537-2.071-1.585 0-1.151 1.048-1.509 2.224-1.662.639-.077 2.352-.256 2.608-.563v1.381c0 1.227-.972 2.429-2.761 2.429Zm7.023 1.125h1.508v-6.213c0-1.33 1.049-2.301 2.48-2.301.403 0 .819.076.921.102v-1.534a14.28 14.28 0 0 0-.793-.026c-1.176 0-2.199.665-2.557 1.637h-.102v-1.483h-1.457V535Zm9.586.23c1.713 0 2.608-.92 2.915-1.56h.077V535h1.508v-6.469c0-3.119-2.378-3.477-3.63-3.477-1.483 0-3.171.511-3.938 2.301l1.432.511c.332-.715 1.119-1.482 2.557-1.482 1.387 0 2.071.735 2.071 1.994v.051c0 .729-.742.665-2.531.895-1.822.236-3.81.639-3.81 2.889 0 1.918 1.483 3.017 3.349 3.017Zm.23-1.355c-1.201 0-2.071-.537-2.071-1.585 0-1.151 1.049-1.509 2.225-1.662.639-.077 2.352-.256 2.608-.563v1.381c0 1.227-.972 2.429-2.762 2.429Zm-139.715 23.317c2.877 0 4.705-2.027 4.705-5.063 0-3.042-1.828-5.075-4.705-5.075-2.876 0-4.704 2.033-4.704 5.075 0 3.036 1.828 5.063 4.704 5.063Zm.013-1.854c-1.591 0-2.371-1.419-2.371-3.215 0-1.796.78-3.235 2.371-3.235 1.566 0 2.346 1.439 2.346 3.235 0 1.796-.78 3.215-2.346 3.215Zm12.914-2.467c0 1.495-1.068 2.237-2.09 2.237-1.113 0-1.854-.786-1.854-2.033v-5.893h-2.314v6.251c0 2.359 1.342 3.695 3.273 3.695 1.47 0 2.505-.774 2.953-1.873h.102V557h2.244v-9.818h-2.314v5.689Zm9.596-5.689h-1.937v-2.352h-2.314v2.352h-1.393v1.79h1.393v5.458c-.013 1.848 1.33 2.755 3.068 2.704a4.647 4.647 0 0 0 1.362-.23l-.39-1.809a2.88 2.88 0 0 1-.678.09c-.581 0-1.048-.205-1.048-1.138v-5.075h1.937v-1.79Zm1.935 9.818h2.314v-5.772c0-1.246.94-2.129 2.212-2.129.39 0 .875.071 1.073.135v-2.129a5.59 5.59 0 0 0-.831-.064c-1.125 0-2.064.639-2.422 1.777h-.102v-1.636h-2.244V557Zm9.769.198c1.54 0 2.461-.722 2.882-1.547h.077V557h2.225v-6.571c0-2.595-2.116-3.375-3.989-3.375-2.065 0-3.65.92-4.161 2.71l2.16.307c.23-.671.882-1.246 2.014-1.246 1.074 0 1.662.549 1.662 1.514v.039c0 .665-.697.697-2.429.882-1.905.204-3.727.773-3.727 2.985 0 1.93 1.413 2.953 3.286 2.953Zm.601-1.7c-.966 0-1.656-.441-1.656-1.291 0-.889.773-1.26 1.809-1.407.607-.083 1.822-.236 2.122-.479v1.157c0 1.093-.882 2.02-2.275 2.02Zm11.374 5.184h2.314v-5.229h.096c.364.716 1.125 1.72 2.812 1.72 2.314 0 4.047-1.835 4.047-5.069 0-3.273-1.784-5.05-4.053-5.05-1.732 0-2.454 1.042-2.806 1.751h-.134v-1.623h-2.276v13.5Zm2.269-8.591c0-1.905.819-3.139 2.308-3.139 1.54 0 2.333 1.311 2.333 3.139 0 1.841-.805 3.183-2.333 3.183-1.477 0-2.308-1.278-2.308-3.183Zm13.328 5.101c2.288 0 3.861-1.119 4.27-2.826l-2.161-.242c-.313.831-1.08 1.265-2.077 1.265-1.496 0-2.487-.984-2.506-2.665h6.84v-.71c0-3.445-2.071-4.96-4.488-4.96-2.812 0-4.647 2.065-4.647 5.094 0 3.081 1.809 5.044 4.769 5.044Zm-2.468-6.028c.071-1.253.998-2.307 2.378-2.307 1.33 0 2.225.971 2.237 2.307h-4.615Zm16.551-1.387c-.32-1.662-1.649-2.723-3.95-2.723-2.365 0-3.976 1.163-3.97 2.979-.006 1.431.876 2.378 2.762 2.767l1.674.352c.902.198 1.324.562 1.324 1.119 0 .671-.729 1.176-1.829 1.176-1.061 0-1.751-.46-1.949-1.343l-2.257.218c.288 1.802 1.803 2.87 4.213 2.87 2.454 0 4.187-1.272 4.193-3.132-.006-1.4-.908-2.257-2.761-2.659l-1.675-.358c-.997-.224-1.394-.569-1.387-1.138-.007-.665.729-1.125 1.694-1.125 1.067 0 1.63.582 1.809 1.227l2.109-.23Zm9.879 0c-.32-1.662-1.649-2.723-3.95-2.723-2.365 0-3.976 1.163-3.97 2.979-.006 1.431.876 2.378 2.762 2.767l1.674.352c.902.198 1.323.562 1.323 1.119 0 .671-.728 1.176-1.828 1.176-1.061 0-1.751-.46-1.949-1.343l-2.257.218c.288 1.802 1.803 2.87 4.213 2.87 2.454 0 4.186-1.272 4.193-3.132-.007-1.4-.908-2.257-2.761-2.659l-1.675-.358c-.997-.224-1.394-.569-1.387-1.138-.007-.665.728-1.125 1.694-1.125 1.067 0 1.63.582 1.809 1.227l2.109-.23Zm6.402 7.415c2.876 0 4.704-2.027 4.704-5.063 0-3.042-1.828-5.075-4.704-5.075-2.877 0-4.705 2.033-4.705 5.075 0 3.036 1.828 5.063 4.705 5.063Zm.012-1.854c-1.591 0-2.371-1.419-2.371-3.215 0-1.796.78-3.235 2.371-3.235 1.566 0 2.346 1.439 2.346 3.235 0 1.796-.78 3.215-2.346 3.215Zm9.481 1.86c1.541 0 2.461-.722 2.883-1.547h.077V557h2.224v-6.571c0-2.595-2.115-3.375-3.988-3.375-2.065 0-3.65.92-4.162 2.71l2.161.307c.23-.671.882-1.246 2.013-1.246 1.074 0 1.662.549 1.662 1.514v.039c0 .665-.696.697-2.429.882-1.904.204-3.726.773-3.726 2.985 0 1.93 1.412 2.953 3.285 2.953Zm.601-1.7c-.965 0-1.655-.441-1.655-1.291 0-.889.773-1.26 1.809-1.407.607-.083 1.821-.236 2.122-.479v1.157c0 1.093-.882 2.02-2.276 2.02Zm8.201 1.604c.633 0 1.151-.517 1.151-1.15 0-.633-.518-1.151-1.151-1.151s-1.15.518-1.15 1.151.517 1.15 1.15 1.15Z" fill="#fff"/><path d="M422.967 496h17.693v-4.564h-12.158v-6.251h11.199v-4.564h-11.199v-6.239h12.107v-4.564h-17.642V496Zm22.043 0h16.76v-4.564h-11.225v-21.618h-5.535V496Zm25.961-26.182h-5.535V496h5.535v-26.182Zm4.555 0V496h5.369v-17.105h.217l6.776 16.977h3.656l6.776-16.913h.217V496h5.369v-26.182h-6.826l-7.211 17.591h-.307l-7.21-17.591h-6.826Zm38.476 0h-5.535V496h5.535v-26.182Zm26.454 0h-5.51v16.466h-.23l-11.301-16.466h-4.858V496h5.535v-16.479h.192L535.675 496h4.781v-26.182ZM549.542 496l1.943-5.97h9.448l1.943 5.97h5.932l-9.026-26.182h-7.133L543.61 496h5.932Zm3.35-10.291 3.221-9.908h.205l3.221 9.908h-6.647ZM571.959 496h5.536v-9.281h4.039l4.961 9.281h6.11l-5.561-10.176c2.979-1.279 4.628-3.874 4.628-7.453 0-5.203-3.439-8.553-9.383-8.553h-10.33V496Zm5.536-13.73v-7.926h3.733c3.196 0 4.743 1.419 4.743 4.027 0 2.595-1.547 3.899-4.718 3.899h-3.758ZM432.892 521.909h-2.359v8.923h-.115l-6.162-8.923h-2.122V535h2.371v-8.917h.109l6.168 8.917h2.11v-13.091Zm5.307 13.289c1.54 0 2.461-.722 2.883-1.547h.076V535h2.225v-6.571c0-2.595-2.116-3.375-3.989-3.375-2.065 0-3.65.92-4.161 2.71l2.16.307c.23-.671.882-1.246 2.014-1.246 1.074 0 1.662.549 1.662 1.514v.039c0 .665-.697.697-2.429.882-1.905.204-3.727.773-3.727 2.985 0 1.93 1.413 2.953 3.286 2.953Zm-.582-11.211c0-.582.32-.972.774-.972.383 0 .645.185.926.39.352.249.742.524 1.419.518 1.138-.007 2.027-.889 2.039-2.41l-1.374-.058c-.006.569-.313.978-.799.978-.371 0-.658-.192-.971-.396-.371-.243-.774-.511-1.375-.511-1.144 0-2.039.907-2.039 2.429l1.4.032Zm1.183 9.511c-.966 0-1.656-.441-1.656-1.291 0-.889.774-1.26 1.809-1.407.607-.083 1.822-.236 2.122-.479v1.157c0 1.093-.882 2.02-2.275 2.02Zm11.192 1.694c2.877 0 4.705-2.027 4.705-5.063 0-3.042-1.828-5.075-4.705-5.075-2.876 0-4.704 2.033-4.704 5.075 0 3.036 1.828 5.063 4.704 5.063Zm.013-1.854c-1.592 0-2.372-1.419-2.372-3.215 0-1.796.78-3.235 2.372-3.235 1.566 0 2.346 1.439 2.346 3.235 0 1.796-.78 3.215-2.346 3.215Zm11.91 1.662h1.508v-6.213c0-1.33 1.049-2.301 2.48-2.301.403 0 .819.076.921.102v-1.534a14.28 14.28 0 0 0-.793-.026c-1.176 0-2.199.665-2.556 1.637h-.103v-1.483h-1.457V535Zm10.515.205c1.994 0 3.451-.998 3.912-2.481l-1.458-.409c-.383 1.023-1.272 1.534-2.454 1.534-1.771 0-2.992-1.144-3.062-3.247h7.127v-.639c0-3.656-2.173-4.909-4.219-4.909-2.659 0-4.423 2.097-4.423 5.114s1.739 5.037 4.577 5.037Zm-3.062-5.907c.102-1.527 1.183-2.889 2.908-2.889 1.637 0 2.685 1.227 2.685 2.889h-5.593Zm12.311 5.932c1.713 0 2.608-.92 2.915-1.56h.077V535h1.508v-6.469c0-3.119-2.378-3.477-3.631-3.477-1.483 0-3.17.511-3.937 2.301l1.432.511c.332-.715 1.118-1.482 2.557-1.482 1.387 0 2.071.735 2.071 1.994v.051c0 .729-.742.665-2.532.895-1.821.236-3.809.639-3.809 2.889 0 1.918 1.483 3.017 3.349 3.017Zm.23-1.355c-1.202 0-2.071-.537-2.071-1.585 0-1.151 1.048-1.509 2.225-1.662.639-.077 2.352-.256 2.608-.563v1.381c0 1.227-.972 2.429-2.762 2.429Zm8.532-11.966h-1.509V535h1.509v-13.091ZM493.204 535h1.508v-9.818h-1.508V535Zm.767-11.455c.588 0 1.074-.46 1.074-1.022 0-.563-.486-1.023-1.074-1.023-.588 0-1.074.46-1.074 1.023 0 .562.486 1.022 1.074 1.022ZM497.194 535h7.696v-1.406h-5.599v-.103l5.42-7.107v-1.202h-7.338v1.406h5.395v.102l-5.574 7.159V535Zm13.855.205c1.994 0 3.452-.998 3.912-2.481l-1.458-.409c-.383 1.023-1.272 1.534-2.454 1.534-1.771 0-2.992-1.144-3.062-3.247h7.127v-.639c0-3.656-2.173-4.909-4.218-4.909-2.66 0-4.424 2.097-4.424 5.114s1.739 5.037 4.577 5.037Zm-3.062-5.907c.102-1.527 1.183-2.889 2.909-2.889 1.636 0 2.684 1.227 2.684 2.889h-5.593Zm17.374 5.932c1.713 0 2.608-.92 2.914-1.56h.077V535h1.509v-6.469c0-3.119-2.378-3.477-3.631-3.477-1.483 0-3.17.511-3.937 2.301l1.431.511c.333-.715 1.119-1.482 2.557-1.482 1.387 0 2.071.735 2.071 1.994v.051c0 .729-.741.665-2.531.895-1.822.236-3.81.639-3.81 2.889 0 1.918 1.483 3.017 3.35 3.017Zm.23-1.355c-1.202 0-2.071-.537-2.071-1.585 0-1.151 1.048-1.509 2.224-1.662.639-.077 2.353-.256 2.608-.563v1.381c0 1.227-.971 2.429-2.761 2.429Zm16.355-8.693h-2.096v-2.352h-1.509v2.352h-1.483v1.278h1.483v6.137c0 1.713 1.381 2.531 2.659 2.531.563 0 .921-.102 1.125-.179l-.306-1.355c-.128.025-.333.076-.665.076-.665 0-1.304-.204-1.304-1.482v-5.728h2.096v-1.278Zm5.159 10.048c1.713 0 2.608-.92 2.915-1.56h.076V535h1.509v-6.469c0-3.119-2.378-3.477-3.631-3.477-1.483 0-3.17.511-3.937 2.301l1.431.511c.333-.715 1.119-1.482 2.557-1.482 1.387 0 2.071.735 2.071 1.994v.051c0 .729-.741.665-2.531.895-1.822.236-3.81.639-3.81 2.889 0 1.918 1.483 3.017 3.35 3.017Zm.23-1.355c-1.202 0-2.071-.537-2.071-1.585 0-1.151 1.048-1.509 2.224-1.662.64-.077 2.353-.256 2.608-.563v1.381c0 1.227-.971 2.429-2.761 2.429Zm7.023 1.125h1.509v-6.213c0-1.33 1.048-2.301 2.48-2.301.403 0 .818.076.92.102v-1.534a14.242 14.242 0 0 0-.792-.026c-1.176 0-2.199.665-2.557 1.637h-.102v-1.483h-1.458V535Zm10.515.205c1.994 0 3.452-.998 3.912-2.481l-1.457-.409c-.384 1.023-1.272 1.534-2.455 1.534-1.77 0-2.991-1.144-3.062-3.247h7.127v-.639c0-3.656-2.173-4.909-4.218-4.909-2.659 0-4.424 2.097-4.424 5.114s1.739 5.037 4.577 5.037Zm-3.062-5.907c.103-1.527 1.183-2.889 2.909-2.889 1.636 0 2.684 1.227 2.684 2.889h-5.593Zm13.794-4.116h-2.198v-.997c0-.972.409-1.483 1.406-1.483.434 0 .69.102.844.153l.434-1.304c-.23-.102-.69-.256-1.432-.256-1.406 0-2.761.844-2.761 2.532v1.355h-1.585v1.278h1.585V535h1.509v-8.54h2.198v-1.278Zm4.723 10.048c1.713 0 2.607-.92 2.914-1.56h.077V535h1.509v-6.469c0-3.119-2.378-3.477-3.631-3.477-1.483 0-3.171.511-3.938 2.301l1.432.511c.333-.715 1.119-1.482 2.557-1.482 1.387 0 2.071.735 2.071 1.994v.051c0 .729-.741.665-2.531.895-1.822.236-3.81.639-3.81 2.889 0 1.918 1.483 3.017 3.35 3.017Zm.23-1.355c-1.202 0-2.071-.537-2.071-1.585 0-1.151 1.048-1.509 2.224-1.662.639-.077 2.352-.256 2.608-.563v1.381c0 1.227-.972 2.429-2.761 2.429Zm8.122 1.227c.633 0 1.151-.517 1.151-1.15 0-.633-.518-1.151-1.151-1.151s-1.15.518-1.15 1.151.517 1.15 1.15 1.15Z" fill="#3C85FF"/></svg>